<svg id="Capa_1" data-name="Capa 1" xmlns="http://www.w3.org/2000/svg" viewBox="0 0 1000 1000"><defs><style>.cls-1{fill:#fff;}</style></defs><title>Logos_YOBS_Isologo Blanco</title><path class="cls-1" d="M254.89,391.62h-.47q-19.44,0-26.28,17.57L197,488.8q-.93-2.33-30.63-79.46-6.84-17.73-26.43-17.73h-2.8q-15.86,0-24.1,13.37-7.93,12.75-1.24,26.12l53.64,106.67v43.07a26.87,26.87,0,0,0,8.4,19.9,28.69,28.69,0,0,0,20.84,8.55h.62a28.88,28.88,0,0,0,21-8.55,27.39,27.39,0,0,0,8.09-19.9V536.07l55.51-104.33q7.31-13.37-.62-26.43Q271.21,391.63,254.89,391.62Z"/><path class="cls-1" d="M415.48,386.34a70.6,70.6,0,0,0-7.77-.62,67.07,67.07,0,0,0-7.77.62q-48.36,4.51-78.21,34.67Q290.46,452.42,290.46,503q0,46.49,27.52,76.35Q347.38,611,400.09,614q3.27.31,5,.31h5.13q1.71,0,5.13-.31,52.56-3,81.94-34.67,27.52-29.85,27.52-76.35,0-50.53-31.25-81.94Q463.68,390.85,415.48,386.34Zm31.26,161.24q-16.33,19-39,19-22.86,0-39-19Q351.73,528,351.73,500t16.95-47.58q16.17-19,39-19,22.7,0,39,19Q463.52,472,463.53,500T446.73,547.58Z"/><path class="cls-1" d="M683,491.45c.1,0,.16-.1.16-.31s-.05-.31-.16-.31q31.1-14.61,31.1-42.92,0-29.23-28.77-43.07-23-12.13-69.35-12.13-8.71,0-22.86-.47-16.33-.31-21.15-.47a25.63,25.63,0,0,0-18.81,7.31,23,23,0,0,0-7.46,17.26v168.4a22.94,22.94,0,0,0,7.77,17.57,26,26,0,0,0,19.59,7q21.14-1.09,32-1.09,64.84,0,91.89-19.44,24.87-18.19,24.88-46.18Q721.92,506.07,683,491.45ZM604.37,440.6q0-3,2.49-3.11,5.91-.47,14-.47,30,0,30,18.66,0,9-8.24,14.31-9,5.75-26.43,5.75H607a2.37,2.37,0,0,1-1.71-.78,3.36,3.36,0,0,1-.93-2.49Zm44.47,119.26q-10.58,5.75-28.46,5.75-9.33,0-13.06-.16a2.54,2.54,0,0,1-1.87-.78,3,3,0,0,1-1.09-2.33V521.46a3.37,3.37,0,0,1,.93-2.49,3.73,3.73,0,0,1,2.18-.78h10.57q19.43,0,30.63,5.75,11.5,5.91,11.51,17.42Q660.19,553.8,648.84,559.86Z"/><path class="cls-1" d="M876.92,504q-13.68-15.86-43.38-26.74-21.31-8.08-28.46-12.91-7.78-5.28-7.77-13.06,0-6.68,5.91-11,7-5.28,19.9-5.29,10.42,0,24.41,3.89a24,24,0,0,0,18.66-2.33,22.91,22.91,0,0,0,11-13.84l.16-.62A23.19,23.19,0,0,0,860,393.49q-22.55-5.75-36.23-5.75-37.94,0-61.42,18.81-23.64,18.66-23.64,48.82,0,44.63,61.42,66.55,18.66,6.53,26.12,12.59a16.33,16.33,0,0,1,6.38,13.06,15.45,15.45,0,0,1-7.31,13.68q-7.46,5.13-21.3,5.13-11.51,0-31.56-6.22a24.34,24.34,0,0,0-19.59,2A23,23,0,0,0,741,577.28l-.16.47a22.92,22.92,0,0,0,2.49,17.57,23.71,23.71,0,0,0,14.46,11Q784.09,614,801.19,614q45.72,0,69.82-22.39,20.21-18.81,20.21-47.42Q891.22,520.53,876.92,504Z"/></svg>